<svg xmlns="http://www.w3.org/2000/svg" xmlns:xlink="http://www.w3.org/1999/xlink" viewBox="0 0 771.56 434"><defs><style>.cls-1,.cls-11,.cls-12{stroke:#000;stroke-linecap:round;stroke-linejoin:round;}.cls-1{stroke-width:1.34px;}.cls-2{font-size:29.82px;font-family:Kiona-Regular, Kiona;letter-spacing:0.39em;}.cls-3{letter-spacing:0.38em;}.cls-4{letter-spacing:0.34em;}.cls-5{letter-spacing:0.39em;}.cls-6{letter-spacing:0.39em;}.cls-7{letter-spacing:0.38em;}.cls-8{letter-spacing:0.39em;}.cls-9{letter-spacing:0.32em;}.cls-10{letter-spacing:0.39em;}.cls-11{fill:none;}.cls-11,.cls-12{stroke-width:5.04px;}</style></defs><title>Asset 3</title><g id="Layer_2" data-name="Layer 2"><g id="Layer_1-2" data-name="Layer 1"><image width="2400" height="1800" transform="scale(0.32 0.24)" xlink:href="../../DSC100783781.jpg"/><path class="cls-1" d="M80.08,264.32l584.48-.46Z"/><text class="cls-2" transform="translate(120.6 299.57)">Jo<tspan class="cls-3" x="62.88" y="0">r</tspan><tspan class="cls-4" x="92.78" y="0">d</tspan><tspan class="cls-5" x="122.18" y="0">an </tspan><tspan class="cls-6" x="207.45" y="0">G</tspan><tspan class="cls-5" x="240.22" y="0">r</tspan><tspan class="cls-7" x="270.12" y="0">ee</tspan><tspan class="cls-8" x="328.38" y="0">n</tspan><tspan class="cls-3" x="360.38" y="0">ha</tspan><tspan class="cls-9" x="423.7" y="0">l</tspan><tspan x="450.71" y="0">g</tspan><tspan class="cls-10" x="483.48" y="0">h</tspan></text><line class="cls-11" x1="586.84" y1="118.31" x2="691.48" y2="118.31"/><path class="cls-12" d="M172.66,116.67,99.09,252.37Z"/><path class="cls-12" d="M255.5,247.47l-82.84-130.8Z"/><path class="cls-12" d="M209.36,221.47l-44.49-55.69Z"/><path class="cls-12" d="M136.42,223.2l72.94-1.73Z"/><line class="cls-11" x1="639.16" y1="119.94" x2="639.16" y2="249.65"/><line class="cls-11" x1="519.27" y1="119.4" x2="519.13" y2="252.51"/><line class="cls-11" x1="255.5" y1="109.59" x2="255.5" y2="247.47"/><line class="cls-11" x1="363.4" y1="249.65" x2="256.59" y2="110.13"/><path class="cls-12" d="M437,112.31,363.4,249.65Z"/><path class="cls-12" d="M519.13,252.51l-81.61-140.2Z"/><line class="cls-11" x1="483.79" y1="251.18" x2="397.12" y2="251.18"/><path class="cls-11" d="M255.5,247.47c51.06,7.77,82.55-23.69,83.92-64.22,1.25-37.06-36.9-73.33-83.92-74.75"/><path class="cls-11" d="M520.48,207.1c38.2,2.08,66.72-22.6,66.6-44C587,143.44,555,117.17,520,118.28"/><line class="cls-11" x1="519.27" y1="119.4" x2="574.07" y2="189.12"/></g></g></svg>