<svg xmlns="http://www.w3.org/2000/svg" xmlns:xlink="http://www.w3.org/1999/xlink" viewBox="0 0 384 216"><defs><style>.cls-1,.cls-10,.cls-11{stroke:#000;stroke-linecap:round;stroke-linejoin:round;}.cls-1{stroke-width:0.67px;}.cls-2{font-size:14.84px;font-family:Kiona-Regular, Kiona;letter-spacing:0.39em;}.cls-3{letter-spacing:0.39em;}.cls-4{letter-spacing:0.34em;}.cls-5{letter-spacing:0.38em;}.cls-6{letter-spacing:0.38em;}.cls-7{letter-spacing:0.38em;}.cls-8{letter-spacing:0.39em;}.cls-9{letter-spacing:0.33em;}.cls-10{fill:none;}.cls-10,.cls-11{stroke-width:2.51px;}</style></defs><title>Asset 4</title><g id="Layer_2" data-name="Layer 2"><g id="Layer_1-2" data-name="Layer 1"><image width="2400" height="1800" transform="scale(0.16 0.12)" xlink:href="../../DSC100783781.jpg"/><path class="cls-1" d="M39.85,131.55l290.9-.23Z"/><text class="cls-2" transform="translate(60.02 149.09)">Jo<tspan class="cls-3" x="31.29" y="0">r</tspan><tspan class="cls-4" x="46.18" y="0">d</tspan><tspan class="cls-5" x="60.81" y="0">an </tspan><tspan x="103.25" y="0">G</tspan><tspan class="cls-6" x="119.56" y="0">r</tspan><tspan class="cls-7" x="134.44" y="0">ee</tspan><tspan class="cls-8" x="163.44" y="0">n</tspan><tspan class="cls-6" x="179.36" y="0">ha</tspan><tspan class="cls-9" x="210.88" y="0">l</tspan><tspan x="224.32" y="0">g</tspan><tspan class="cls-5" x="240.63" y="0">h</tspan></text><line class="cls-10" x1="292.07" y1="58.88" x2="344.15" y2="58.88"/><path class="cls-11" d="M85.93,58.07,49.32,125.61Z"/><path class="cls-11" d="M127.16,123.16,85.93,58.07Z"/><path class="cls-11" d="M104.2,110.23,82.06,82.51Z"/><path class="cls-11" d="M67.89,111.08l36.31-.85Z"/><line class="cls-10" x1="318.11" y1="59.7" x2="318.11" y2="124.25"/><line class="cls-10" x1="258.44" y1="59.42" x2="258.37" y2="125.67"/><line class="cls-10" x1="127.16" y1="54.54" x2="127.16" y2="123.16"/><line class="cls-10" x1="180.86" y1="124.25" x2="127.7" y2="54.81"/><path class="cls-11" d="M217.48,55.9l-36.62,68.35Z"/><path class="cls-11" d="M258.37,125.67,217.75,55.9Z"/><line class="cls-10" x1="240.78" y1="125.01" x2="197.64" y2="125.01"/><path class="cls-10" d="M127.16,123.16c25.42,3.87,41.09-11.78,41.77-32,.62-18.44-18.37-36.49-41.77-37.2"/><path class="cls-10" d="M259,103.07c19,1,33.21-11.25,33.15-21.92-.05-9.76-16-22.83-33.39-22.28"/><line class="cls-10" x1="258.44" y1="59.42" x2="285.71" y2="94.13"/></g></g></svg>