<svg xmlns="http://www.w3.org/2000/svg" xmlns:xlink="http://www.w3.org/1999/xlink" viewBox="0 0 1920 1080"><defs><style>.cls-1,.cls-10,.cls-11{stroke:#000;stroke-linecap:round;stroke-linejoin:round;}.cls-1{stroke-width:3.34px;}.cls-2{font-size:74.19px;font-family:Kiona-Regular, Kiona;letter-spacing:0.39em;}.cls-3{letter-spacing:0.38em;}.cls-4{letter-spacing:0.34em;}.cls-5{letter-spacing:0.39em;}.cls-6{letter-spacing:0.38em;}.cls-7{letter-spacing:0.39em;}.cls-8{letter-spacing:0.32em;}.cls-9{letter-spacing:0.39em;}.cls-10{fill:none;}.cls-10,.cls-11{stroke-width:12.54px;}</style></defs><title>background</title><g id="Layer_2" data-name="Layer 2"><g id="Layer_1-2" data-name="Layer 1"><image width="2400" height="1800" transform="scale(0.8 0.6)" xlink:href="../../DSC100783781.jpg"/><path class="cls-1" d="M199.27,657.76l1454.47-1.16Z"/><text class="cls-2" transform="translate(300.11 745.47)">Jo<tspan class="cls-3" x="156.47" y="0">r</tspan><tspan class="cls-4" x="230.89" y="0">d</tspan><tspan class="cls-5" x="304.05" y="0">an </tspan><tspan x="516.24" y="0">G</tspan><tspan class="cls-5" x="597.78" y="0">r</tspan><tspan class="cls-6" x="672.2" y="0">ee</tspan><tspan class="cls-7" x="817.17" y="0">n</tspan><tspan class="cls-3" x="896.78" y="0">ha</tspan><tspan class="cls-8" x="1054.37" y="0">l</tspan><tspan class="cls-9" x="1121.59" y="0">g</tspan><tspan class="cls-5" x="1203.13" y="0">h</tspan></text><line class="cls-10" x1="1460.35" y1="294.41" x2="1720.73" y2="294.41"/><path class="cls-11" d="M429.67,290.34,246.59,628Z"/><path class="cls-11" d="M635.81,615.82,429.67,290.34Z"/><path class="cls-11" d="M521,551.14,410.28,412.55Z"/><path class="cls-11" d="M339.47,555.42,521,551.14Z"/><line class="cls-10" x1="1590.54" y1="298.48" x2="1590.54" y2="621.24"/><line class="cls-10" x1="1292.19" y1="297.12" x2="1291.84" y2="628.37"/><line class="cls-10" x1="635.81" y1="272.71" x2="635.81" y2="615.82"/><line class="cls-10" x1="904.32" y1="621.24" x2="638.52" y2="274.07"/><path class="cls-11" d="M1087.41,279.49,904.32,621.24Z"/><path class="cls-11" d="M1291.84,628.37,1088.76,279.49Z"/><line class="cls-10" x1="1203.91" y1="625.06" x2="988.22" y2="625.06"/><path class="cls-10" d="M635.81,615.82C762.88,635.17,841.24,556.88,844.65,456c3.11-92.23-91.84-182.48-208.84-186"/><path class="cls-10" d="M1295.21,515.36c95,5.19,166-56.24,165.74-109.6-.27-48.8-79.85-114.17-167-111.41"/><line class="cls-10" x1="1292.19" y1="297.12" x2="1428.56" y2="470.63"/></g></g></svg>