<svg xmlns="http://www.w3.org/2000/svg" xmlns:xlink="http://www.w3.org/1999/xlink" viewBox="0 0 1280 720"><defs><style>.cls-1,.cls-11,.cls-12{stroke:#000;stroke-linecap:round;stroke-linejoin:round;}.cls-1{stroke-width:2.23px;}.cls-2{font-size:49.46px;font-family:Kiona-Regular, Kiona;letter-spacing:0.39em;}.cls-3{letter-spacing:0.39em;}.cls-4{letter-spacing:0.34em;}.cls-5{letter-spacing:0.38em;}.cls-6{letter-spacing:0.39em;}.cls-7{letter-spacing:0.38em;}.cls-8{letter-spacing:0.33em;}.cls-9{letter-spacing:0.39em;}.cls-10{letter-spacing:0.38em;}.cls-11{fill:none;}.cls-11,.cls-12{stroke-width:8.36px;}</style></defs><title>Background1</title><g id="Layer_2" data-name="Layer 2"><g id="Layer_1-2" data-name="Layer 1"><image width="2400" height="1800" transform="scale(0.53 0.4)" xlink:href="../../DSC100783781.jpg"/><path class="cls-1" d="M132.85,438.51l969.65-.77Z"/><text class="cls-2" transform="translate(200.08 496.98)">Jo<tspan class="cls-3" x="104.32" y="0">r</tspan><tspan class="cls-4" x="153.93" y="0">d</tspan><tspan class="cls-3" x="202.7" y="0">an </tspan><tspan x="344.16" y="0">G</tspan><tspan class="cls-3" x="398.52" y="0">r</tspan><tspan class="cls-5" x="448.13" y="0">ee</tspan><tspan class="cls-6" x="544.78" y="0">n</tspan><tspan class="cls-7" x="597.86" y="0">ha</tspan><tspan class="cls-8" x="702.91" y="0">l</tspan><tspan class="cls-9" x="747.73" y="0">g</tspan><tspan class="cls-10" x="802.09" y="0">h</tspan></text><line class="cls-11" x1="973.57" y1="196.27" x2="1147.15" y2="196.27"/><path class="cls-12" d="M286.45,193.56,164.39,418.68Z"/><path class="cls-12" d="M423.87,410.55l-137.42-217Z"/><path class="cls-12" d="M347.33,367.42,273.52,275Z"/><path class="cls-12" d="M226.31,370.28l121-2.86Z"/><line class="cls-11" x1="1060.36" y1="198.99" x2="1060.36" y2="414.16"/><line class="cls-11" x1="861.46" y1="198.08" x2="861.23" y2="418.92"/><line class="cls-11" x1="423.87" y1="181.81" x2="423.87" y2="410.55"/><line class="cls-11" x1="602.88" y1="414.16" x2="425.68" y2="182.71"/><path class="cls-12" d="M724.94,186.33,602.88,414.16Z"/><path class="cls-12" d="M861.23,418.92,725.84,186.33Z"/><line class="cls-11" x1="802.61" y1="416.7" x2="658.81" y2="416.7"/><path class="cls-11" d="M423.87,410.55c84.72,12.89,137-39.3,139.23-106.54,2.07-61.49-61.23-121.66-139.23-124"/><path class="cls-11" d="M863.47,343.57C926.83,347,974.16,306.08,974,270.5c-.17-32.53-53.23-76.11-111.3-74.27"/><line class="cls-11" x1="861.46" y1="198.08" x2="952.38" y2="313.75"/></g></g></svg>